<svg xmlns="http://www.w3.org/2000/svg" viewBox="0 0 44 44">
  <g id="グループ_49" data-name="グループ 49" transform="translate(-825 -1009)">
    <rect id="長方形_212" data-name="長方形 212" width="44" height="44" rx="22" transform="translate(825 1009)" fill="#222"/>
    <path id="Path_787" d="M14.754,8.2v4.1a2.415,2.415,0,0,1-2.459,2.459H2.459A2.415,2.415,0,0,1,0,12.295H0V2.459A2.415,2.415,0,0,1,2.459,0h4.1a.774.774,0,0,1,.82.82.774.774,0,0,1-.82.82h-4.1a.774.774,0,0,0-.82.82v9.836a.774.774,0,0,0,.82.82h9.836a.774.774,0,0,0,.82-.82V8.2a.82.82,0,1,1,1.639,0ZM13.934,0H10.656a.774.774,0,0,0-.82.82.774.774,0,0,0,.82.82h1.311L6.8,6.8A.811.811,0,0,0,7.951,7.951h0l5.164-5.164V4.1a.82.82,0,1,0,1.639,0V.82A.774.774,0,0,0,13.934,0Z" transform="translate(839.623 1023.623)" fill="#fff"/>
  </g>
</svg>
