<svg xmlns="http://www.w3.org/2000/svg" viewBox="0 0 12.95 12.954">
  <g id="グループ_49" data-name="グループ 49" transform="translate(-844.614 -1002.613)">
    <path id="Path_787" d="M12.948,7.2v3.6a2.119,2.119,0,0,1-2.158,2.158H2.158A2.119,2.119,0,0,1,0,10.79H0V2.158A2.119,2.119,0,0,1,2.158,0h3.6a.679.679,0,0,1,.72.72.679.679,0,0,1-.72.72h-3.6a.679.679,0,0,0-.72.72v8.632a.679.679,0,0,0,.72.72H10.79a.679.679,0,0,0,.72-.72V7.2a.72.72,0,1,1,1.438,0ZM12.228,0H9.352a.679.679,0,0,0-.72.72.679.679,0,0,0,.72.72H10.5L5.968,5.967a.714.714,0,0,0,1.01,1.01h0L11.51,2.446V3.6a.72.72,0,1,0,1.438,0V.719a.679.679,0,0,0-.72-.72Z" transform="translate(844.614 1002.615)"/>
  </g>
</svg>
